<?xml version="1.0" standalone="no"?><!DOCTYPE svg PUBLIC "-//W3C//DTD SVG 1.1//EN" "http://www.w3.org/Graphics/SVG/1.1/DTD/svg11.dtd"><svg t="1576387563957" class="icon" viewBox="0 0 1024 1024" version="1.1" xmlns="http://www.w3.org/2000/svg" p-id="4005" xmlns:xlink="http://www.w3.org/1999/xlink" width="200" height="200"><defs><style type="text/css"></style></defs><path d="M854.8 679.328c-32.84-26.52-78.992-39.104-140.424-39.104l-151.728-0.216V174.36H125.536l0.016 620.744h116.336c59.584 0 114.432 32.48 143.072 84.72h533.536v52.92h0.008v-105.664c-5.88-68.816-26.104-117.376-63.704-147.752z" fill="#00B393" p-id="4006"></path><path d="M582.712 91.344A71.344 71.344 0 0 0 511.36 20H176.816a71.344 71.344 0 0 0-71.344 71.344v83.016h477.24V91.336z" fill="#FFE8C2" p-id="4007"></path><path d="M194.984 310.8a19.896 19.896 0 0 1-7.656-1.544 20.08 20.08 0 0 1-6.504-4.32 20.128 20.128 0 0 1-5.84-14.136c0-5.28 2.128-10.424 5.84-14.16 0.944-0.92 1.96-1.76 3.04-2.48a20.2 20.2 0 0 1 7.2-2.984 20.256 20.256 0 0 1 18.064 5.464 20.184 20.184 0 0 1 5.456 18.056 20.152 20.152 0 0 1-5.456 10.24 20.152 20.152 0 0 1-14.144 5.864z" fill="#000000" p-id="4008"></path；><path d="M125.552 795.104v165.896a43 43 0 0 0 42.992 42.992h171.6v-32.96H463.04v32.96h407.48a47.976 47.976 0 0 0 47.968-47.968v-76.2h-533.52a163.168 163.168 0 0 0-143.08-84.72H125.544z" fill="#C59B6D" p-id="4009"></path><path d="M125.552 795.104h116.336a163.176 163.176 0 0 1 124.232 57.376s-1.344-4.032-1.344-6.056c0-141.968-103.552-259.744-239.24-281.96l0.016 230.64zM854.8 679.344c-61.728 47.096-103.704 118.8-111.304 200.48h174.992l0.016-52.728c-5.88-68.824-26.104-117.4-63.704-147.76z" fill="#007F67" p-id="4010"></path><path d="M938.504 827.08c-1.696-19.776-4.624-39.688-8.656-56.424-8.112-33.68-21.008-61.304-38.896-83.32a159.152 159.152 0 0 0-23.584-23.56v-0.008c-36.288-29.296-86.336-43.544-152.968-43.544l-131.752-0.192v-425.68h0.064a20 20 0 0 0 20-20V91.344C602.712 40.976 561.736 0 511.368 0H176.816C126.448 0 85.472 40.976 85.472 91.344v83.016a20 20 0 0 0 20 20h0.064v-0.048 0.04-0.04l0.008 766.688c0 34.736 28.264 62.992 63 62.992h171.6a20 20 0 0 0 20-20v-12.96H443.04v12.96a20 20 0 0 0 20 20h407.48c37.48 0 67.968-30.488 67.968-67.968l-0.056-130.64 0.072 1.696c0-0.56 0.048 0.568 0 0zM125.472 91.344A51.408 51.408 0 0 1 176.816 40h334.552c28.312 0 51.344 23.04 51.344 51.344v63.016H125.472v-63.016z m270.88 768.48a183.416 183.416 0 0 0-11.6-16.16 295.368 295.368 0 0 0-0.088-5.648h345.368c-1.656 7.2-3.048 14.48-4.184 21.808H396.36zM145.552 589.056a264.264 264.264 0 0 1 195.984 215.488c-0.464-0.296-0.944-0.576-1.416-0.88l-0.704-0.44a182.536 182.536 0 0 0-24.128-12.776l-0.712-0.304a183.28 183.28 0 0 0-9.944-3.96l-1.144-0.408c-1.48-0.528-2.968-1.048-4.464-1.536l-0.936-0.296a182.64 182.64 0 0 0-14.656-4.056l-1.28-0.312c-1.184-0.264-2.368-0.504-3.552-0.744l-2.584-0.52c-1.064-0.2-2.144-0.384-3.216-0.56a185.968 185.968 0 0 0-6.008-0.936 176.928 176.928 0 0 0-9.712-1.064c-0.872-0.064-1.744-0.144-2.608-0.2-1.368-0.096-2.744-0.16-4.12-0.232-0.72-0.032-1.424-0.08-2.136-0.096a184 184 0 0 0-6.32-0.12H145.552V589.056z m625.696 248.96h127.256v21.808H766.376c1.312-7.352 2.944-14.624 4.864-21.808z m82.728-132.216l0.16 0.16c1.4 1.504 2.776 3.056 4.12 4.648l0.432 0.504c1.304 1.56 2.568 3.176 3.808 4.816l0.72 0.944c1.192 1.616 2.36 3.272 3.496 4.96l0.672 1.024c1.152 1.744 2.28 3.52 3.36 5.36 0.12 0.184 0.224 0.384 0.336 0.576 1.04 1.752 2.032 3.552 3.016 5.376 0.16 0.32 0.336 0.624 0.504 0.944 0.992 1.888 1.944 3.816 2.88 5.784l0.608 1.312c0.912 1.96 1.8 3.968 2.648 6.008l0.512 1.256c0.88 2.136 1.728 4.312 2.544 6.536l0.184 0.528c0.792 2.176 1.544 4.4 2.272 6.656l0.352 1.088a217.472 217.472 0 0 1 2.488 8.448c0.656 2.392 1.288 4.824 1.888 7.296l0.296 1.248c0.608 2.616 1.2 5.264 1.76 7.968l0.032 0.176c0.56 2.712 1.064 5.472 1.552 8.28l0.056 0.32H785.496a266.96 266.96 0 0 1 68.48-92.216z m-139.6-45.576c44.656 0 79.912 6.96 106.984 21.104a307.168 307.168 0 0 0-79.12 116.68H380.92a305.6 305.6 0 0 0-69.696-150.496 306.824 306.824 0 0 0-96.24-74.936v-210.56a20 20 0 0 0-40 0v194.08a303.368 303.368 0 0 0-29.44-8.112l-0.008-353.624h397.112V270.4l-28.536-28.304a20 20 0 0 0-28.168 28.4l32.936 32.672-32.88 32.616a20 20 0 0 0 28.168 28.4l28.48-28.256v78.816l-28.456-28.224a20 20 0 0 0-28.168 28.4l32.936 32.672-32.88 32.624a20 20 0 0 0 28.176 28.4l28.392-28.176v78.648l-28.376-28.136a20 20 0 0 0-28.16 28.4l32.928 32.672-32.88 32.616a20 20 0 0 0 28.176 28.4l28.312-28.088v15.064a20 20 0 0 0 19.968 20l151.76 0.208zM870.52 984H483.04v-12.96a20 20 0 0 0-20-20H340.144a20 20 0 0 0-20 20v12.96h-151.6a23.024 23.024 0 0 1-22.992-22.992v-145.896h96.336c2.344 0 4.672 0.08 7 0.192 0.504 0.024 1.008 0.04 1.512 0.08 2.24 0.128 4.464 0.304 6.688 0.544l1.36 0.16c1.936 0.224 3.872 0.488 5.792 0.8 0.464 0.064 0.936 0.128 1.4 0.208a142.616 142.616 0 0 1 13.992 3.08c0.64 0.176 1.28 0.368 1.928 0.56 1.576 0.448 3.144 0.936 4.696 1.44a146.176 146.176 0 0 1 7.712 2.744c0.816 0.32 1.616 0.656 2.424 0.984a145.072 145.072 0 0 1 18.496 9.208c0.688 0.408 1.36 0.84 2.04 1.256 1.264 0.776 2.512 1.576 3.76 2.4 0.632 0.416 1.272 0.824 1.896 1.248a143.456 143.456 0 0 1 6.584 4.792c1.68 1.296 3.36 2.616 4.984 3.992l0.664 0.576c1.584 1.36 3.136 2.744 4.664 4.168l0.992 0.92c1.656 1.576 3.28 3.192 4.864 4.848l0.736 0.792c1.648 1.744 3.256 3.52 4.824 5.36l0.04 0.032a143.304 143.304 0 0 1 16.496 23.952 20 20 0 0 0 17.536 10.384h513.528v56.2a28 28 0 0 1-27.976 27.968z" fill="#000000" p-id="4011"></path></svg>