<svg version="1.1" 
    xmlns="http://www.w3.org/2000/svg">
    <defs>
        <symbol id="YWinding" viewBox="-40 -40 81 81">
            <circle cx="0" cy="0" r="20" fill-opacity="0" stroke-width="2"/>
            <line x1="-10" y1="-5" x2="0" y2="6" stroke-width="1"/>
            <line x1="10" y1="-5" x2="0" y2="6" stroke-width="1"/>
            <line x1="0" y1="6" x2="0" y2="18" stroke-width="1"/>
        </symbol>
        <symbol id="account-logout" viewBox="0 0 8 8">
            <path d="M3 0v1h4v5h-4v1h5v-7h-5zm-1 2l-2 1.5 2 1.5v-1h4v-1h-4v-1z"></path>
        </symbol>

        <!-- 1.16.1 熔断器式断路器_竖直_刀下_分 -->
        <symbol id="FuseBreaker_V_D_Open" viewBox="-40 -40 81 81">
            <line x1="0" y1="-30" x2="0" y2="-14" stroke-width="1"/>
            <path d="M-1.5 10.2 L6 -8.5 L11.8 -6.2 L4.1 13.8 L-1.5 10.2 z" fill-opacity="0" stroke-width="1"/>
            <line x1="0" y1="14.3" x2="10" y2="-11" stroke-width="2"/>
            <line x1="0" y1="30" x2="0" y2="14" stroke-width="1"/>
            <line x1="-3" y1="-11" x2="3" y2="-17" stroke-width="1"/>
            <line x1="3" y1="-11" x2="-3" y2="-17" stroke-width="1"/>
        </symbol>

        <!-- 1.6.3 小车隔离开关_竖直_合 -->
        <symbol id="DrawoutDis_V_Close" viewBox="-40 -40 81 81">
            <circle cx="0" cy="-29" r="1" stroke-width="1" fill-opacity="0"/>
            <path d="M0 -28 L0 -9 M-7 -11 L0 -18 L 7 -11 M-7 -16 L0 -23 L7 -16" fill-opacity="0" stroke-width="1"/>
            <path d="M0 28 L0 9 M-7 11 L0 18 L 7 11 M-7 16 L0 23 L7 16" fill-opacity="0"/>
            <path d="M0 9 L0 -9" stroke-width="2" fill-opacity="0"/>
            <circle cx="0" cy="29" r="1" stroke-width="1" fill-opacity="0"/>
        </symbol>


    </defs>
</svg>