<svg version="1.1" 
    xmlns="http://www.w3.org/2000/svg">
    <defs>
        <!-- 电流互感器  -->
        <symbol id="CurrentTransformer-3" viewBox="-48 -48 96 96">

            <line x1="0" y1="-48" x2="0" y2="-10"/>
            <line x1="0" y1="48" x2="0" y2="10"/>

            <circle cx="-28" cy="0" r="10" fill-opacity="0" />
            <line x1="-28" y1="-24" x2="-28" y2="24"/>
            <line x1="-18" y1="0" x2="-10" y2="0"/>
            <line x1="-16" y1="3" x2="-14" y2="-3"/>
            <line x1="-14" y1="3" x2="-12" y2="-3"/>

            <circle cx="0" cy="0" r="10" fill-opacity="0" />
            <line x1="0" y1="-10" x2="0" y2="10"/>
            <line x1="10" y1="0" x2="18" y2="0"/>
            <line x1="12" y1="3" x2="14" y2="-3"/>
            <line x1="14" y1="3" x2="16" y2="-3"/>

            <circle cx="28" cy="0" r="10" fill-opacity="0" />
            <line x1="28" y1="-24" x2="28" y2="24"/>
            <line x1="38" y1="0" x2="46" y2="0"/>
            <line x1="40" y1="3" x2="42" y2="-3"/>
            <line x1="42" y1="3" x2="44" y2="-3"/>

        </symbol>

        <symbol id="CurrentTransformer-2" viewBox="-48 -48 96 96">

            <line x1="0" y1="-48" x2="0" y2="-10"/>
            <line x1="0" y1="48" x2="0" y2="10"/>

            <circle cx="-22" cy="0" r="10" fill-opacity="0" />
            <line x1="-22" y1="-24" x2="-22" y2="24"/>
            <line x1="-12" y1="0" x2="0" y2="0"/>
            <line x1="-10" y1="3" x2="-8" y2="-3"/>
            <line x1="-8" y1="3" x2="-6" y2="-3"/>

            <line x1="0" y1="-10" x2="0" y2="10"/>
            <line x1="0" y1="0" x2="8" y2="0"/>

            <circle cx="18" cy="0" r="10" fill-opacity="0" />
            <line x1="18" y1="-24" x2="18" y2="24"/>
            <line x1="28" y1="0" x2="36" y2="0"/>
            <line x1="30" y1="3" x2="32" y2="-3"/>
            <line x1="32" y1="3" x2="34" y2="-3"/>

        </symbol>

        <symbol id="CurrentTransformer-1" viewBox="-48 -48 96 96">

            <line x1="0" y1="-48" x2="0" y2="-24"/>
            <line x1="0" y1="48" x2="0" y2="24"/>

            <circle cx="0" cy="0" r="24" fill-opacity="0" />
            <line x1="0" y1="-24" x2="0" y2="24"/>
            <line x1="24" y1="0" x2="42" y2="0"/>
            <line x1="30" y1="6" x2="34" y2="-6"/>
            <line x1="34" y1="6" x2="38" y2="-6"/>
        </symbol>
    </defs>
</svg>