<svg version="1.1" 
    xmlns="http://www.w3.org/2000/svg">
    <defs>
        <!-- 双绕组变压器 ΔY组合  -->
        <symbol id="DoubleWindingTransformer-DY" viewBox="-48 -48 96 96">

            <line x1="0" y1="-48" x2="0" y2="-36"/>
            <line x1="0" y1="48" x2="0" y2="36"/>

            <g>
                <circle cx="0" cy="-16" r="20" fill="none" />
                <path d="M0,-26 L-10,-8 L10,-8 Z" fill="none" />

                <circle cx="0" cy="16" r="20" fill="none" />
                <line x1="-10" y1="8" x2="0" y2="16" stroke-linecap="round" />
                <line x1="10" y1="8" x2="0" y2="16" stroke-linecap="round" />
                <line x1="0" y1="26" x2="0" y2="16" stroke-linecap="round" />
            </g>
        </symbol>

        <!-- 双绕组变压器 ΔΔ组合  -->
        <symbol id="DoubleWindingTransformer-DD" viewBox="-48 -48 96 96">

            <line x1="0" y1="-48" x2="0" y2="-36"/>
            <line x1="0" y1="48" x2="0" y2="36"/>

            <g>
                <circle cx="0" cy="-16" r="20" fill="none" />
                <path d="M0,-26 L-10,-8 L10,-8 Z" fill="none" />

                <circle cx="0" cy="16" r="20" fill="none" />
                <path d="M0,6 L-10,24 L10,24 Z" fill="none" />
            </g>

        </symbol>

        <!-- 双绕组变压器 YY组合  -->
        <symbol id="DoubleWindingTransformer-YY" viewBox="-48 -48 96 96">
            <line x1="0" y1="-48" x2="0" y2="-36"/>
            <line x1="0" y1="48" x2="0" y2="36"/>

            <g>
                <circle cx="0" cy="-16" r="20" fill="none" />
                <line x1="-10" y1="-24" x2="0" y2="-16" stroke-linecap="round" />
                <line x1="10" y1="-24" x2="0" y2="-16" stroke-linecap="round" />
                <line x1="0" y1="-6" x2="0" y2="-16" stroke-linecap="round" />

                <circle cx="0" cy="16" r="20" fill="none" />
                <line x1="-10" y1="8" x2="0" y2="16" stroke-linecap="round" />
                <line x1="10" y1="8" x2="0" y2="16" stroke-linecap="round" />
                <line x1="0" y1="26" x2="0" y2="16" stroke-linecap="round" />
            </g>
        </symbol>

        <!-- 双绕组变压器 YΔ组合  -->
        <symbol id="DoubleWindingTransformer-YD" viewBox="-48 -48 96 96">
            <line x1="0" y1="-48" x2="0" y2="-36"/>
            <line x1="0" y1="48" x2="0" y2="36"/>

            <g>
                <circle cx="0" cy="-16" r="20" fill="none" />
                <line x1="-10" y1="-24" x2="0" y2="-16" stroke-linecap="round" />
                <line x1="10" y1="-24" x2="0" y2="-16" stroke-linecap="round" />
                <line x1="0" y1="-6" x2="0" y2="-16" stroke-linecap="round" />

                <circle cx="0" cy="16" r="20" fill="none" />
                <path d="M0,6 L-10,24 L10,24 Z" fill="none" />
            </g>
        </symbol>

    </defs>
</svg>