<svg version="1.1" 
    xmlns="http://www.w3.org/2000/svg">
    <defs>

        <!-- 抽屉式断路器_刀下_右_分 -->
        <symbol id="Switch02_D_R_Open" viewBox="-48 -48 96 96">
            <line x1="0" y1="-48" x2="0" y2="-20" />
            <line x1="0" y1="48" x2="0" y2="20" />

            <path d="M -8 -30 L 0 -35 L 8 -30" fill-opacity="0" />
            <path d="M -8 30 L 0 35 L 8 30" fill-opacity="0" />

            <path d="M -8 -33 L 0 -38 L 8 -33" fill-opacity="0" />
            <path d="M -8 33 L 0 38 L 8 33" fill-opacity="0" />

            <line x1="-4" y1="-16" x2="4" y2="-24" />
            <line x1="4" y1="-16" x2="-4" y2="-24" />

            <g stroke="red">
                <line x1="0" y1="20" x2="22" y2="-18" stroke-width="2" stroke="red" stroke-linecap='rect' />
            </g>
        </symbol>

        <!-- 抽屉式断路器_刀上_右_分 -->
        <symbol id="Switch02_U_R_Open" viewBox="-48 -48 96 96">
            <line x1="0" y1="-48" x2="0" y2="-20" />
            <line x1="0" y1="48" x2="0" y2="20" />

            <path d="M -8 -30 L 0 -35 L 8 -30" fill-opacity="0" />
            <path d="M -8 30 L 0 35 L 8 30" fill-opacity="0" />

            <path d="M -8 -33 L 0 -38 L 8 -33" fill-opacity="0" />
            <path d="M -8 33 L 0 38 L 8 33" fill-opacity="0" />

            <line x1="-4" y1="16" x2="4" y2="24"/>
            <line x1="4" y1="16" x2="-4" y2="24"/>

            <g stroke="red">
                <line x1="0" y1="-20" x2="22" y2="18" stroke-width="2" stroke="red" stroke-linecap='rect' />
            </g>
        </symbol>

        <!-- 抽屉式断路器_刀下_左_分 -->
        <symbol id="Switch02_D_L_Open" viewBox="-48 -48 96 96">
            <line x1="0" y1="-48" x2="0" y2="-20" />
            <line x1="0" y1="48" x2="0" y2="20" />

            <path d="M -8 -30 L 0 -35 L 8 -30" fill-opacity="0" />
            <path d="M -8 30 L 0 35 L 8 30" fill-opacity="0" />

            <path d="M -8 -33 L 0 -38 L 8 -33" fill-opacity="0" />
            <path d="M -8 33 L 0 38 L 8 33" fill-opacity="0" />

            <line x1="-4" y1="-16" x2="4" y2="-24" />
            <line x1="4" y1="-16" x2="-4" y2="-24" />

            <g stroke="red">
                <line x1="0" y1="20" x2="-22" y2="-18" stroke-width="2" stroke="red" stroke-linecap='rect' />
            </g>
        </symbol>

        <!-- 抽屉式断路器_刀上_左_分 -->
        <symbol id="Switch02_U_L_Open" viewBox="-48 -48 96 96">
            <line x1="0" y1="-48" x2="0" y2="-20" />
            <line x1="0" y1="48" x2="0" y2="20" />

            <path d="M -8 -30 L 0 -35 L 8 -30" fill-opacity="0" />
            <path d="M -8 30 L 0 35 L 8 30" fill-opacity="0" />

            <path d="M -8 -33 L 0 -38 L 8 -33" fill-opacity="0" />
            <path d="M -8 33 L 0 38 L 8 33" fill-opacity="0" />

            <line x1="-4" y1="16" x2="4" y2="24"/>
            <line x1="4" y1="16" x2="-4" y2="24"/>

            <g stroke="red">
                <line x1="0" y1="-20" x2="-22" y2="18" stroke-width="2" stroke="red" stroke-linecap='rect' />
            </g>
        </symbol>

        <!-- 抽屉式断路器_刀上_合 -->
        <symbol id="Switch02_U_Close" viewBox="-48 -48 96 96">
            <line x1="0" y1="-48" x2="0" y2="-20" />
            <line x1="0" y1="48" x2="0" y2="20" />

            <path d="M -6 -32 L 0 -35 L 6 -32" fill-opacity="0" />
            <path d="M -6 32 L 0 35 L 6 32" fill-opacity="0" />

            <path d="M -6 -35 L 0 -38 L 6 -35" fill-opacity="0" />
            <path d="M -6 35 L 0 38 L 6 35" fill-opacity="0" />

            <line x1="-4" y1="16" x2="4" y2="24"/>
            <line x1="4" y1="16" x2="-4" y2="24"/>

            <g stroke="red">
                <line x1="0" y1="20" x2="0" y2="-20" stroke-width="2" stroke="red" stroke-linecap='rect' />
            </g>
        </symbol>

        <!-- 抽屉式断路器_刀下_合 -->
        <symbol id="Switch02_D_Close" viewBox="-48 -48 96 96">
            <line x1="0" y1="-48" x2="0" y2="-20" />
            <line x1="0" y1="48" x2="0" y2="20" />

            <path d="M -8 -30 L 0 -35 L 8 -30" fill-opacity="0" />
            <path d="M -8 30 L 0 35 L 8 30" fill-opacity="0" />

            <path d="M -8 -33 L 0 -38 L 8 -33" fill-opacity="0" />
            <path d="M -8 33 L 0 38 L 8 33" fill-opacity="0" />

            <line x1="-4" y1="-16" x2="4" y2="-24" />
            <line x1="4" y1="-16" x2="-4" y2="-24" />

            <g stroke="red">
                <line x1="0" y1="20" x2="0" y2="-20" stroke-width="2" stroke="red" stroke-linecap='rect' />
            </g>
        </symbol>

    </defs>
</svg>