<svg version="1.1" 
    xmlns="http://www.w3.org/2000/svg">
    <defs>

        <!-- 抽屉式断路器_竖直_刀下_分 -->
        <symbol id="Switch_V_D_Open" viewBox="-40 -40 81 81">

            <!-- 刀片 -->
            <path d="M0 9 L-8 -8" stroke-width="1" fill-opacity="0"/>

            <line x1="0" y1="-30" x2="0" y2="-9" stroke-width="1" />
            <line x1="0" y1="30" x2="0" y2="9" stroke-width="1" />

            <path d="M -4 -22 L 0 -25 L 4 -22" fill-opacity="0" stroke-width="1" />
            <path d="M -4 22 L 0 25 L 4 22" fill-opacity="0" stroke-width="1" />

            <path d="M -4 -25 L 0 -28 L 4 -25" fill-opacity="0" stroke-width="1" />
            <path d="M -4 25 L 0 28 L 4 25" fill-opacity="0" stroke-width="1" />

            <line x1="-2" y1="-8" x2="2" y2="-12" stroke-width="1"/>
            <line x1="2" y1="-8" x2="-2" y2="-12" stroke-width="1"/>
        </symbol>

        <!-- 抽屉式断路器_竖直_刀下_合 -->
        <symbol id="Switch_V_D_Close" viewBox="-40 -40 81 81">

            <!-- 刀片 -->
            <path d="M0 9 L-0 -9" stroke-width="1" fill-opacity="0"/>

            <line x1="0" y1="-30" x2="0" y2="-9" stroke-width="1" />
            <line x1="0" y1="30" x2="0" y2="9" stroke-width="1" />

            <path d="M -4 -22 L 0 -25 L 4 -22" fill-opacity="0" stroke-width="1" />
            <path d="M -4 22 L 0 25 L 4 22" fill-opacity="0" stroke-width="1" />

            <path d="M -4 -25 L 0 -28 L 4 -25" fill-opacity="0" stroke-width="1" />
            <path d="M -4 25 L 0 28 L 4 25" fill-opacity="0" stroke-width="1" />

            <line x1="-2" y1="-8" x2="2" y2="-12" stroke-width="1"/>
            <line x1="2" y1="-8" x2="-2" y2="-12" stroke-width="1"/>
        </symbol>

    </defs>
</svg>