<svg version="1.1" 
    xmlns="http://www.w3.org/2000/svg">
    <defs>

        <!-- 抽屉式断路器_竖直_刀下_分 -->
        <symbol id="Switch_V_D_Open" viewBox="-40 -40 81 81">

            <!-- 刀片 -->
            <path d="M0 9 L-9 -9" stroke-width="1" fill-opacity="0"/>

            <line x1="0" y1="-30" x2="0" y2="-9" stroke-width="1" />
            <line x1="0" y1="30" x2="0" y2="9" stroke-width="1" />

            <path d="M -5 -20 L 0 -23 L 5 -20" fill-opacity="0" stroke-width="1" />
            <path d="M -5 20 L 0 23 L 5 20" fill-opacity="0" stroke-width="1" />

            <path d="M -5 -23 L 0 -26 L 5 -23" fill-opacity="0" stroke-width="1" />
            <path d="M -5 23 L 0 26 L 5 23" fill-opacity="0" stroke-width="1" />

            <line x1="-3" y1="-7" x2="3" y2="-13" stroke-width="1"/>
            <line x1="3" y1="-7" x2="-3" y2="-13" stroke-width="1"/>
        </symbol>

        <!-- 抽屉式断路器_竖直_刀下_合 -->
        <symbol id="Switch_V_D_Close" viewBox="-40 -40 81 81">

            <!-- 刀片 -->
            <path d="M0 9 L-0 -9" stroke-width="1" fill-opacity="0"/>

            <line x1="0" y1="-30" x2="0" y2="-9" stroke-width="1" />
            <line x1="0" y1="30" x2="0" y2="9" stroke-width="1" />

            <path d="M -5 -20 L 0 -23 L 5 -20" fill-opacity="0" stroke-width="1" />
            <path d="M -5 20 L 0 23 L 5 20" fill-opacity="0" stroke-width="1" />

            <path d="M -5 -23 L 0 -26 L 5 -23" fill-opacity="0" stroke-width="1" />
            <path d="M -5 23 L 0 26 L 5 23" fill-opacity="0" stroke-width="1" />

            <line x1="-3" y1="-7" x2="3" y2="-13" stroke-width="1"/>
            <line x1="3" y1="-7" x2="-3" y2="-13" stroke-width="1"/>
        </symbol>

        

    </defs>
</svg>