<svg version="1.1" 
    xmlns="http://www.w3.org/2000/svg">
    <defs>

        <!-- 隔断开关_刀下_右_分 -->
        <symbol id="Switch01_D_R_Open" viewBox="-48 -48 96 96">
            <line x1="0" y1="-48" x2="0" y2="-20" />
            <line x1="0" y1="48" x2="0" y2="20" />
            <line x1="-4" y1="-20" x2="4" y2="-20" />

            <g stroke="red">
                <line x1="1" y1="16" x2="22" y2="-18" stroke-width="2" stroke="red" stroke-linecap='rect' />
                <circle cx="0" cy="18" r="2" fill-opacity="0"/>
            </g>
        </symbol>

        <!-- 隔断开关_刀上_右_分 -->
        <symbol id="Switch01_U_R_Open" viewBox="-48 -48 96 96">
            <line x1="0" y1="-48" x2="0" y2="-20" />
            <line x1="0" y1="48" x2="0" y2="20" />
            <line x1="-4" y1="20" x2="4" y2="20" />

            <g stroke="red">
                <line x1="1" y1="-16" x2="22" y2="18" stroke-width="2" stroke="red" stroke-linecap='rect' />
                <circle cx="0" cy="-18" r="2" fill-opacity="0"/>
            </g>
        </symbol>

        <!-- 隔断开关_刀下_左_分 -->
        <symbol id="Switch01_D_L_Open" viewBox="-48 -48 96 96">
            <line x1="0" y1="-48" x2="0" y2="-20" />
            <line x1="0" y1="48" x2="0" y2="20" />
            <line x1="-4" y1="-20" x2="4" y2="-20" />

            <g stroke="red">
                <line x1="-1" y1="16" x2="-22" y2="-18" stroke-width="2" stroke="red" stroke-linecap='rect' />
                <circle cx="0" cy="18" r="2" fill-opacity="0"/>
            </g>
        </symbol>


        <!-- 隔断开关_刀上_左_分 -->
        <symbol id="Switch01_U_L_Open" viewBox="-48 -48 96 96">
            <line x1="0" y1="-48" x2="0" y2="-20" />
            <line x1="0" y1="48" x2="0" y2="20" />
            <line x1="-4" y1="20" x2="4" y2="20" />

            <g stroke="red">
                <line x1="-1" y1="-16" x2="-22" y2="18" stroke-width="2" stroke="red" stroke-linecap='rect' />
                <circle cx="0" cy="-18" r="2" fill-opacity="0"/>
            </g>
        </symbol>

        <!-- 隔断开关_刀上_合 -->
        <symbol id="Switch01_U_Close" viewBox="-48 -48 96 96">
            <line x1="0" y1="-48" x2="0" y2="-20" />
            <line x1="0" y1="48" x2="0" y2="20" />
            <line x1="-4" y1="20" x2="4" y2="20" />

            <g stroke="red">
                <line x1="0" y1="-16" x2="0" y2="19" stroke-width="2" stroke="red" stroke-linecap='rect' />
                <circle cx="0" cy="-18" r="2" fill-opacity="0"/>
            </g>
        </symbol>

        <!-- 隔断开关_刀下_合 -->
        <symbol id="Switch01_D_Close" viewBox="-48 -48 96 96">
            <line x1="0" y1="-48" x2="0" y2="-20" />
            <line x1="0" y1="48" x2="0" y2="20" />
            <line x1="-4" y1="-20" x2="4" y2="-20" />

            <g stroke="red">
                <line x1="0" y1="16" x2="0" y2="-19" stroke-width="2" stroke="red" stroke-linecap='rect' />
                <circle cx="0" cy="18" r="2" fill-opacity="0"/>
            </g>
        </symbol>

    </defs>
</svg>