<svg version="1.1" 
    xmlns="http://www.w3.org/2000/svg">
    <defs>

        <!-- 抽屉式断路器_竖直_刀下_分 -->
        <symbol id="Switch02_V_D_Open" viewBox="-48 -48 96 96">
            <line x1="0" y1="-48" x2="0" y2="-10" />
            <line x1="0" y1="48" x2="0" y2="10" />

            <path d="M -6 -22 L 0 -25 L 6 -22" fill-opacity="0" />
            <path d="M -6 22 L 0 25 L 6 22" fill-opacity="0" />

            <path d="M -6 -25 L 0 -28 L 6 -25" fill-opacity="0" />
            <path d="M -6 25 L 0 28 L 6 25" fill-opacity="0" />

            <line x1="-3" y1="-7" x2="3" y2="-13"/>
            <line x1="3" y1="-7" x2="-3" y2="-13"/>

            <line x1="0" y1="10" x2="12" y2="-8" stroke="red" strokeLinecap='circle' />
        </symbol>

        <!-- 抽屉式断路器_竖直_刀下_合 -->
        <symbol id="Switch02_V_D_Close" viewBox="-40 -40 81 81">
            <line x1="0" y1="-48" x2="0" y2="-10" />
            <line x1="0" y1="48" x2="0" y2="10" />

            <path d="M -6 -22 L 0 -25 L 6 -22" fill-opacity="0" />
            <path d="M -6 22 L 0 25 L 6 22" fill-opacity="0" />

            <path d="M -6 -25 L 0 -28 L 6 -25" fill-opacity="0" />
            <path d="M -6 25 L 0 28 L 6 25" fill-opacity="0" />

            <line x1="-3" y1="-7" x2="3" y2="-13"/>
            <line x1="3" y1="-7" x2="-3" y2="-13"/>

            <line x1="0" y1="10" x2="0" y2="-9" stroke="red" strokeLinecap='circle' />

        </symbol>

        <!-- 抽屉式断路器_竖直_刀上_分 -->
        <symbol id="Switch02_V_U_Open" viewBox="-48 -48 96 96">
            <line x1="0" y1="-48" x2="0" y2="-10" />
            <line x1="0" y1="48" x2="0" y2="10" />

            <path d="M -6 -22 L 0 -25 L 6 -22" fill-opacity="0" />
            <path d="M -6 22 L 0 25 L 6 22" fill-opacity="0" />

            <path d="M -6 -25 L 0 -28 L 6 -25" fill-opacity="0" />
            <path d="M -6 25 L 0 28 L 6 25" fill-opacity="0" />

            <line x1="-3" y1="7" x2="3" y2="13"/>
            <line x1="3" y1="7" x2="-3" y2="13"/>

            <line x1="0" y1="-10" x2="12" y2="8" stroke="red" strokeLinecap='circle' />
        </symbol>

        <!-- 抽屉式断路器_竖直_刀上_合 -->
        <symbol id="Switch02_V_U_Close" viewBox="-48 -48 96 96">
            <line x1="0" y1="-48" x2="0" y2="-10" />
            <line x1="0" y1="48" x2="0" y2="10" />

            <path d="M -6 -22 L 0 -25 L 6 -22" fill-opacity="0" />
            <path d="M -6 22 L 0 25 L 6 22" fill-opacity="0" />

            <path d="M -6 -25 L 0 -28 L 6 -25" fill-opacity="0" />
            <path d="M -6 25 L 0 28 L 6 25" fill-opacity="0" />

            <line x1="-3" y1="7" x2="3" y2="13"/>
            <line x1="3" y1="7" x2="-3" y2="13"/>

            <line x1="0" y1="-10" x2="0" y2="9" stroke="red" strokeLinecap='circle' />
        </symbol>

        <!-- 抽屉式断路器_水平_刀左_分 -->
        <symbol id="Switch02_H_L_Open" viewBox="-48 -48 96 96">
            <line x1="-48" y1="0" x2="-10" y2="0" />
            <line x1="48" y1="0" x2="10" y2="0" />

            <path d="M -22 -6  L -25 0 L -22 6" fill-opacity="0" />
            <path d="M 22 -6 L 25 0 L 22 6" fill-opacity="0" />

            <path d="M -25 -6 L -28 0 L -25 6" fill-opacity="0" />
            <path d="M 25 -6 L 28 0 L 25 6" fill-opacity="0" />

            <line x1="7" y1="-3" x2="13" y2="3"/>
            <line x1="7" y1="3" x2="13" y2="-3"/>

            <line x1="-10" y1="0" x2="8" y2="-12" stroke="red" strokeLinecap='circle' />
        </symbol>

        <!-- 抽屉式断路器_水平_刀左_合 -->
        <symbol id="Switch02_H_L_Close" viewBox="-48 -48 96 96">
            <line x1="-48" y1="0" x2="-10" y2="0" />
            <line x1="48" y1="0" x2="10" y2="0" />

            <path d="M -22 -6  L -25 0 L -22 6" fill-opacity="0" />
            <path d="M 22 -6 L 25 0 L 22 6" fill-opacity="0" />

            <path d="M -25 -6 L -28 0 L -25 6" fill-opacity="0" />
            <path d="M 25 -6 L 28 0 L 25 6" fill-opacity="0" />

            <line x1="7" y1="-3" x2="13" y2="3"/>
            <line x1="7" y1="3" x2="13" y2="-3"/>

            <line x1="-10" y1="0" x2="9" y2="0" stroke="red" strokeLinecap='circle' />
        </symbol>

        <!-- 抽屉式断路器_水平_刀右_分 -->
        <symbol id="Switch02_H_R_Open" viewBox="-48 -48 96 96">
            <line x1="-48" y1="0" x2="-10" y2="0" />
            <line x1="48" y1="0" x2="10" y2="0" />

            <path d="M -22 -6  L -25 0 L -22 6" fill-opacity="0" />
            <path d="M 22 -6 L 25 0 L 22 6" fill-opacity="0" />

            <path d="M -25 -6 L -28 0 L -25 6" fill-opacity="0" />
            <path d="M 25 -6 L 28 0 L 25 6" fill-opacity="0" />

            <line x1="-7" y1="-3" x2="-13" y2="3"/>
            <line x1="-7" y1="3" x2="-13" y2="-3"/>

            <line x1="10" y1="0" x2="-8" y2="-12" stroke="red" strokeLinecap='circle' />
        </symbol>

        <!-- 抽屉式断路器_水平_刀右_合 -->
        <symbol id="Switch02_H_R_Close" viewBox="-48 -48 96 96">
            <line x1="-48" y1="0" x2="-10" y2="0" />
            <line x1="48" y1="0" x2="10" y2="0" />

            <path d="M -22 -6  L -25 0 L -22 6" fill-opacity="0" />
            <path d="M 22 -6 L 25 0 L 22 6" fill-opacity="0" />

            <path d="M -25 -6 L -28 0 L -25 6" fill-opacity="0" />
            <path d="M 25 -6 L 28 0 L 25 6" fill-opacity="0" />

            <line x1="-7" y1="-3" x2="-13" y2="3"/>
            <line x1="-7" y1="3" x2="-13" y2="-3"/>

            <line x1="10" y1="0" x2="-9" y2="0" stroke="red" strokeLinecap='circle' />
        </symbol>

    </defs>
</svg>