<svg version="1.1" 
    xmlns="http://www.w3.org/2000/svg">
    <defs>

        <symbol id="Triac-NoBorder" viewBox="-48 -48 96 96">
            <line x1="0" y1="-48" x2="0" y2="-24" />
            <line x1="0" y1="48" x2="0" y2="24" />

            <g>
                <line x1="-28" y1="-24" x2="28" y2="-24" stroke-linecap="round" />
                <line x1="-28" y1="24" x2="28" y2="24" stroke-linecap="round" />

                <line x1="-28" y1="-24" x2="-14" y2="24" stroke-linecap="round" />
                <line x1="14" y1="-24" x2="28" y2="24" stroke-linecap="round" />

                <line x1="0" y1="-24" x2="-14" y2="24" />
                <line x1="0" y1="24" x2="14" y2="-24" />

                <path d="M-14,24 L-16,30 L-18,31" fill="none" />
                <path d="M14,-24 L16,-30 L18,-31" fill="none" />

                <circle cx="-19" cy="32" r="2" fill="none" />
                <circle cx="19" cy="-32" r="2" fill="none" />
            </g>
        </symbol>

        <symbol id="Triac-HasBoard" viewBox="-48 -48 96 96">
            <line x1="0" y1="-48" x2="0" y2="-40" />
            <line x1="0" y1="48" x2="0" y2="40" />

            <g>
                <path d="M-36,-40 L-36,40 L36,40 L36,-40 Z" fill="none" />

                <line x1="0" y1="-40" x2="0" y2="-24" stroke-linecap="round" />
                <line x1="0" y1="40" x2="0" y2="24" stroke-linecap="round" />

                <line x1="-28" y1="-24" x2="28" y2="-24" stroke-linecap="round" />
                <line x1="-28" y1="24" x2="28" y2="24" stroke-linecap="round" />

                <line x1="-28" y1="-24" x2="-14" y2="24" stroke-linecap="round" />
                <line x1="14" y1="-24" x2="28" y2="24" stroke-linecap="round" />

                <line x1="0" y1="-24" x2="-14" y2="24" />
                <line x1="0" y1="24" x2="14" y2="-24" />

                <path d="M-14,24 L-16,30 L-18,31" fill="none" />
                <path d="M14,-24 L16,-30 L18,-31" fill="none" />

                <circle cx="-19" cy="32" r="2" fill="none" />
                <circle cx="19" cy="-32" r="2" fill="none" />
            </g>
        </symbol>
    </defs>
</svg>